<svg xmlns="http://www.w3.org/2000/svg" width="370" height="370">
<path d="M0,0h14.8v14.8H0V0z M14.8,0h14.8v14.8H14.8V0z M29.6,0h14.8v14.8H29.6V0z M44.4,0h14.8v14.8H44.4V0z M59.2,0H74v14.8H59.2
	V0z M74,0h14.8v14.8H74V0z M88.8,0h14.8v14.8H88.8V0z M118.4,0h14.8v14.8h-14.8V0z M148,0h14.8v14.8H148V0z M162.8,0h14.8v14.8
	h-14.8V0z M177.6,0h14.8v14.8h-14.8V0z M192.4,0h14.8v14.8h-14.8V0z M266.4,0h14.8v14.8h-14.8V0z M281.2,0H296v14.8h-14.8V0z M296,0
	h14.8v14.8H296V0z M310.8,0h14.8v14.8h-14.8V0z M325.6,0h14.8v14.8h-14.8V0z M340.4,0h14.8v14.8h-14.8V0z M355.2,0H370v14.8h-14.8V0
	z M0,14.8h14.8v14.8H0V14.8z M88.8,14.8h14.8v14.8H88.8V14.8z M118.4,14.8h14.8v14.8h-14.8V14.8z M133.2,14.8H148v14.8h-14.8V14.8z
	 M148,14.8h14.8v14.8H148V14.8z M177.6,14.8h14.8v14.8h-14.8V14.8z M236.8,14.8h14.8v14.8h-14.8V14.8z M266.4,14.8h14.8v14.8h-14.8
	V14.8z M355.2,14.8H370v14.8h-14.8V14.8z M0,29.6h14.8v14.8H0V29.6z M29.6,29.6h14.8v14.8H29.6V29.6z M44.4,29.6h14.8v14.8H44.4
	V29.6z M59.2,29.6H74v14.8H59.2V29.6z M88.8,29.6h14.8v14.8H88.8V29.6z M148,29.6h14.8v14.8H148V29.6z M192.4,29.6h14.8v14.8h-14.8
	V29.6z M207.2,29.6H222v14.8h-14.8V29.6z M266.4,29.6h14.8v14.8h-14.8V29.6z M296,29.6h14.8v14.8H296V29.6z M310.8,29.6h14.8v14.8
	h-14.8V29.6z M325.6,29.6h14.8v14.8h-14.8V29.6z M355.2,29.6H370v14.8h-14.8V29.6z M0,44.4h14.8v14.8H0V44.4z M29.6,44.4h14.8v14.8
	H29.6V44.4z M44.4,44.4h14.8v14.8H44.4V44.4z M59.2,44.4H74v14.8H59.2V44.4z M88.8,44.4h14.8v14.8H88.8V44.4z M148,44.4h14.8v14.8
	H148V44.4z M162.8,44.4h14.8v14.8h-14.8V44.4z M192.4,44.4h14.8v14.8h-14.8V44.4z M207.2,44.4H222v14.8h-14.8V44.4z M222,44.4h14.8
	v14.8H222V44.4z M266.4,44.4h14.8v14.8h-14.8V44.4z M296,44.4h14.8v14.8H296V44.4z M310.8,44.4h14.8v14.8h-14.8V44.4z M325.6,44.4
	h14.8v14.8h-14.8V44.4z M355.2,44.4H370v14.8h-14.8V44.4z M0,59.2h14.8V74H0V59.2z M29.6,59.2h14.8V74H29.6V59.2z M44.4,59.2h14.8
	V74H44.4V59.2z M59.2,59.2H74V74H59.2V59.2z M88.8,59.2h14.8V74H88.8V59.2z M118.4,59.2h14.8V74h-14.8V59.2z M133.2,59.2H148V74
	h-14.8V59.2z M148,59.2h14.8V74H148V59.2z M177.6,59.2h14.8V74h-14.8V59.2z M192.4,59.2h14.8V74h-14.8V59.2z M207.2,59.2H222V74
	h-14.8V59.2z M266.4,59.2h14.8V74h-14.8V59.2z M296,59.2h14.8V74H296V59.2z M310.8,59.2h14.8V74h-14.8V59.2z M325.6,59.2h14.8V74
	h-14.8V59.2z M355.2,59.2H370V74h-14.8V59.2z M0,74h14.8v14.8H0V74z M88.8,74h14.8v14.8H88.8V74z M118.4,74h14.8v14.8h-14.8V74z
	 M192.4,74h14.8v14.8h-14.8V74z M266.4,74h14.8v14.8h-14.8V74z M355.2,74H370v14.8h-14.8V74z M0,88.8h14.8v14.8H0V88.8z M14.8,88.8
	h14.8v14.8H14.8V88.8z M29.6,88.8h14.8v14.8H29.6V88.8z M44.4,88.8h14.8v14.8H44.4V88.8z M59.2,88.8H74v14.8H59.2V88.8z M74,88.8
	h14.8v14.8H74V88.8z M88.8,88.8h14.8v14.8H88.8V88.8z M118.4,88.8h14.8v14.8h-14.8V88.8z M148,88.8h14.8v14.8H148V88.8z M177.6,88.8
	h14.8v14.8h-14.8V88.8z M207.2,88.8H222v14.8h-14.8V88.8z M236.8,88.8h14.8v14.8h-14.8V88.8z M266.4,88.8h14.8v14.8h-14.8V88.8z
	 M281.2,88.8H296v14.8h-14.8V88.8z M296,88.8h14.8v14.8H296V88.8z M310.8,88.8h14.8v14.8h-14.8V88.8z M325.6,88.8h14.8v14.8h-14.8
	V88.8z M340.4,88.8h14.8v14.8h-14.8V88.8z M355.2,88.8H370v14.8h-14.8V88.8z M118.4,103.6h14.8v14.8h-14.8V103.6z M148,103.6h14.8
	v14.8H148V103.6z M207.2,103.6H222v14.8h-14.8V103.6z M236.8,103.6h14.8v14.8h-14.8V103.6z M0,118.4h14.8v14.8H0V118.4z M14.8,118.4
	h14.8v14.8H14.8V118.4z M29.6,118.4h14.8v14.8H29.6V118.4z M74,118.4h14.8v14.8H74V118.4z M88.8,118.4h14.8v14.8H88.8V118.4z
	 M118.4,118.4h14.8v14.8h-14.8V118.4z M133.2,118.4H148v14.8h-14.8V118.4z M148,118.4h14.8v14.8H148V118.4z M162.8,118.4h14.8v14.8
	h-14.8V118.4z M222,118.4h14.8v14.8H222V118.4z M251.6,118.4h14.8v14.8h-14.8V118.4z M266.4,118.4h14.8v14.8h-14.8V118.4z
	 M281.2,118.4H296v14.8h-14.8V118.4z M296,118.4h14.8v14.8H296V118.4z M340.4,118.4h14.8v14.8h-14.8V118.4z M355.2,118.4H370v14.8
	h-14.8V118.4z M14.8,133.2h14.8V148H14.8V133.2z M29.6,133.2h14.8V148H29.6V133.2z M44.4,133.2h14.8V148H44.4V133.2z M59.2,133.2H74
	V148H59.2V133.2z M103.6,133.2h14.8V148h-14.8V133.2z M118.4,133.2h14.8V148h-14.8V133.2z M133.2,133.2H148V148h-14.8V133.2z
	 M148,133.2h14.8V148H148V133.2z M162.8,133.2h14.8V148h-14.8V133.2z M177.6,133.2h14.8V148h-14.8V133.2z M192.4,133.2h14.8V148
	h-14.8V133.2z M222,133.2h14.8V148H222V133.2z M236.8,133.2h14.8V148h-14.8V133.2z M251.6,133.2h14.8V148h-14.8V133.2z M266.4,133.2
	h14.8V148h-14.8V133.2z M281.2,133.2H296V148h-14.8V133.2z M310.8,133.2h14.8V148h-14.8V133.2z M340.4,133.2h14.8V148h-14.8V133.2z
	 M355.2,133.2H370V148h-14.8V133.2z M0,148h14.8v14.8H0V148z M44.4,148h14.8v14.8H44.4V148z M88.8,148h14.8v14.8H88.8V148z
	 M162.8,148h14.8v14.8h-14.8V148z M177.6,148h14.8v14.8h-14.8V148z M222,148h14.8v14.8H222V148z M266.4,148h14.8v14.8h-14.8V148z
	 M296,148h14.8v14.8H296V148z M310.8,148h14.8v14.8h-14.8V148z M325.6,148h14.8v14.8h-14.8V148z M355.2,148H370v14.8h-14.8V148z
	 M29.6,162.8h14.8v14.8H29.6V162.8z M74,162.8h14.8v14.8H74V162.8z M118.4,162.8h14.8v14.8h-14.8V162.8z M133.2,162.8H148v14.8
	h-14.8V162.8z M162.8,162.8h14.8v14.8h-14.8V162.8z M207.2,162.8H222v14.8h-14.8V162.8z M222,162.8h14.8v14.8H222V162.8z
	 M251.6,162.8h14.8v14.8h-14.8V162.8z M266.4,162.8h14.8v14.8h-14.8V162.8z M296,162.8h14.8v14.8H296V162.8z M310.8,162.8h14.8v14.8
	h-14.8V162.8z M29.6,177.6h14.8v14.8H29.6V177.6z M44.4,177.6h14.8v14.8H44.4V177.6z M88.8,177.6h14.8v14.8H88.8V177.6z
	 M133.2,177.6H148v14.8h-14.8V177.6z M177.6,177.6h14.8v14.8h-14.8V177.6z M222,177.6h14.8v14.8H222V177.6z M266.4,177.6h14.8v14.8
	h-14.8V177.6z M281.2,177.6H296v14.8h-14.8V177.6z M355.2,177.6H370v14.8h-14.8V177.6z M44.4,192.4h14.8v14.8H44.4V192.4z
	 M59.2,192.4H74v14.8H59.2V192.4z M103.6,192.4h14.8v14.8h-14.8V192.4z M118.4,192.4h14.8v14.8h-14.8V192.4z M162.8,192.4h14.8v14.8
	h-14.8V192.4z M177.6,192.4h14.8v14.8h-14.8V192.4z M207.2,192.4H222v14.8h-14.8V192.4z M222,192.4h14.8v14.8H222V192.4z
	 M236.8,192.4h14.8v14.8h-14.8V192.4z M266.4,192.4h14.8v14.8h-14.8V192.4z M281.2,192.4H296v14.8h-14.8V192.4z M340.4,192.4h14.8
	v14.8h-14.8V192.4z M355.2,192.4H370v14.8h-14.8V192.4z M0,207.2h14.8V222H0V207.2z M14.8,207.2h14.8V222H14.8V207.2z M29.6,207.2
	h14.8V222H29.6V207.2z M44.4,207.2h14.8V222H44.4V207.2z M59.2,207.2H74V222H59.2V207.2z M74,207.2h14.8V222H74V207.2z M88.8,207.2
	h14.8V222H88.8V207.2z M103.6,207.2h14.8V222h-14.8V207.2z M118.4,207.2h14.8V222h-14.8V207.2z M133.2,207.2H148V222h-14.8V207.2z
	 M162.8,207.2h14.8V222h-14.8V207.2z M177.6,207.2h14.8V222h-14.8V207.2z M222,207.2h14.8V222H222V207.2z M236.8,207.2h14.8V222
	h-14.8V207.2z M251.6,207.2h14.8V222h-14.8V207.2z M266.4,207.2h14.8V222h-14.8V207.2z M310.8,207.2h14.8V222h-14.8V207.2z
	 M325.6,207.2h14.8V222h-14.8V207.2z M355.2,207.2H370V222h-14.8V207.2z M59.2,222H74v14.8H59.2V222z M118.4,222h14.8v14.8h-14.8
	V222z M133.2,222H148v14.8h-14.8V222z M148,222h14.8v14.8H148V222z M162.8,222h14.8v14.8h-14.8V222z M177.6,222h14.8v14.8h-14.8V222
	z M222,222h14.8v14.8H222V222z M236.8,222h14.8v14.8h-14.8V222z M251.6,222h14.8v14.8h-14.8V222z M281.2,222H296v14.8h-14.8V222z
	 M296,222h14.8v14.8H296V222z M310.8,222h14.8v14.8h-14.8V222z M0,236.8h14.8v14.8H0V236.8z M14.8,236.8h14.8v14.8H14.8V236.8z
	 M29.6,236.8h14.8v14.8H29.6V236.8z M88.8,236.8h14.8v14.8H88.8V236.8z M103.6,236.8h14.8v14.8h-14.8V236.8z M118.4,236.8h14.8v14.8
	h-14.8V236.8z M133.2,236.8H148v14.8h-14.8V236.8z M148,236.8h14.8v14.8H148V236.8z M177.6,236.8h14.8v14.8h-14.8V236.8z
	 M236.8,236.8h14.8v14.8h-14.8V236.8z M251.6,236.8h14.8v14.8h-14.8V236.8z M266.4,236.8h14.8v14.8h-14.8V236.8z M281.2,236.8H296
	v14.8h-14.8V236.8z M296,236.8h14.8v14.8H296V236.8z M340.4,236.8h14.8v14.8h-14.8V236.8z M118.4,251.6h14.8v14.8h-14.8V251.6z
	 M148,251.6h14.8v14.8H148V251.6z M162.8,251.6h14.8v14.8h-14.8V251.6z M192.4,251.6h14.8v14.8h-14.8V251.6z M236.8,251.6h14.8v14.8
	h-14.8V251.6z M296,251.6h14.8v14.8H296V251.6z M355.2,251.6H370v14.8h-14.8V251.6z M0,266.4h14.8v14.8H0V266.4z M14.8,266.4h14.8
	v14.8H14.8V266.4z M29.6,266.4h14.8v14.8H29.6V266.4z M44.4,266.4h14.8v14.8H44.4V266.4z M59.2,266.4H74v14.8H59.2V266.4z M74,266.4
	h14.8v14.8H74V266.4z M88.8,266.4h14.8v14.8H88.8V266.4z M148,266.4h14.8v14.8H148V266.4z M162.8,266.4h14.8v14.8h-14.8V266.4z
	 M192.4,266.4h14.8v14.8h-14.8V266.4z M207.2,266.4H222v14.8h-14.8V266.4z M236.8,266.4h14.8v14.8h-14.8V266.4z M266.4,266.4h14.8
	v14.8h-14.8V266.4z M296,266.4h14.8v14.8H296V266.4z M355.2,266.4H370v14.8h-14.8V266.4z M0,281.2h14.8V296H0V281.2z M88.8,281.2
	h14.8V296H88.8V281.2z M118.4,281.2h14.8V296h-14.8V281.2z M133.2,281.2H148V296h-14.8V281.2z M207.2,281.2H222V296h-14.8V281.2z
	 M236.8,281.2h14.8V296h-14.8V281.2z M296,281.2h14.8V296H296V281.2z M340.4,281.2h14.8V296h-14.8V281.2z M0,296h14.8v14.8H0V296z
	 M29.6,296h14.8v14.8H29.6V296z M44.4,296h14.8v14.8H44.4V296z M59.2,296H74v14.8H59.2V296z M88.8,296h14.8v14.8H88.8V296z
	 M133.2,296H148v14.8h-14.8V296z M222,296h14.8v14.8H222V296z M236.8,296h14.8v14.8h-14.8V296z M251.6,296h14.8v14.8h-14.8V296z
	 M266.4,296h14.8v14.8h-14.8V296z M281.2,296H296v14.8h-14.8V296z M296,296h14.8v14.8H296V296z M0,310.8h14.8v14.8H0V310.8z
	 M29.6,310.8h14.8v14.8H29.6V310.8z M44.4,310.8h14.8v14.8H44.4V310.8z M59.2,310.8H74v14.8H59.2V310.8z M88.8,310.8h14.8v14.8H88.8
	V310.8z M133.2,310.8H148v14.8h-14.8V310.8z M162.8,310.8h14.8v14.8h-14.8V310.8z M222,310.8h14.8v14.8H222V310.8z M251.6,310.8
	h14.8v14.8h-14.8V310.8z M296,310.8h14.8v14.8H296V310.8z M325.6,310.8h14.8v14.8h-14.8V310.8z M340.4,310.8h14.8v14.8h-14.8V310.8z
	 M0,325.6h14.8v14.8H0V325.6z M29.6,325.6h14.8v14.8H29.6V325.6z M44.4,325.6h14.8v14.8H44.4V325.6z M59.2,325.6H74v14.8H59.2V325.6
	z M88.8,325.6h14.8v14.8H88.8V325.6z M118.4,325.6h14.8v14.8h-14.8V325.6z M148,325.6h14.8v14.8H148V325.6z M162.8,325.6h14.8v14.8
	h-14.8V325.6z M192.4,325.6h14.8v14.8h-14.8V325.6z M236.8,325.6h14.8v14.8h-14.8V325.6z M281.2,325.6H296v14.8h-14.8V325.6z
	 M296,325.6h14.8v14.8H296V325.6z M310.8,325.6h14.8v14.8h-14.8V325.6z M340.4,325.6h14.8v14.8h-14.8V325.6z M355.2,325.6H370v14.8
	h-14.8V325.6z M0,340.4h14.8v14.8H0V340.4z M88.8,340.4h14.8v14.8H88.8V340.4z M118.4,340.4h14.8v14.8h-14.8V340.4z M133.2,340.4
	H148v14.8h-14.8V340.4z M236.8,340.4h14.8v14.8h-14.8V340.4z M251.6,340.4h14.8v14.8h-14.8V340.4z M281.2,340.4H296v14.8h-14.8
	V340.4z M296,340.4h14.8v14.8H296V340.4z M0,355.2h14.8V370H0V355.2z M14.8,355.2h14.8V370H14.8V355.2z M29.6,355.2h14.8V370H29.6
	V355.2z M44.4,355.2h14.8V370H44.4V355.2z M59.2,355.2H74V370H59.2V355.2z M74,355.2h14.8V370H74V355.2z M88.8,355.2h14.8V370H88.8
	V355.2z M118.4,355.2h14.8V370h-14.8V355.2z M162.8,355.2h14.8V370h-14.8V355.2z M207.2,355.2H222V370h-14.8V355.2z M236.8,355.2
	h14.8V370h-14.8V355.2z M251.6,355.2h14.8V370h-14.8V355.2z M266.4,355.2h14.8V370h-14.8V355.2z M310.8,355.2h14.8V370h-14.8V355.2z
	 M355.2,355.2H370V370h-14.8V355.2z"/>
</svg>
